<svg width="35" height="32" viewBox="0 0 35 32" fill="none" xmlns="http://www.w3.org/2000/svg">
<g clip-path="url(#clip0_107_22)">
<path d="M11.6676 16C11.6676 13.0546 14.2785 10.6662 17.5 10.6662C20.7215 10.6662 23.3338 13.0546 23.3338 16C23.3338 18.9454 20.7215 21.3338 17.5 21.3338C14.2785 21.3338 11.6676 18.9454 11.6676 16ZM8.51393 16C8.51393 20.5376 12.537 24.2158 17.5 24.2158C22.463 24.2158 26.4861 20.5376 26.4861 16C26.4861 11.4624 22.463 7.78417 17.5 7.78417C12.537 7.78417 8.51393 11.4624 8.51393 16ZM24.7417 7.45848C24.7417 8.51826 25.6817 9.379 26.8423 9.379C28.0014 9.379 28.9429 8.51826 28.9429 7.45848C28.9429 6.39871 28.0028 5.53926 26.8423 5.53926C25.6817 5.53926 24.7417 6.39871 24.7417 7.45848ZM10.4293 29.0236C8.72314 28.9525 7.79584 28.6927 7.17952 28.473C6.36248 28.1822 5.78009 27.8359 5.1666 27.2763C4.55452 26.7166 4.17427 26.1842 3.85763 25.4372C3.61733 24.8737 3.3332 24.0258 3.25545 22.4659C3.17064 20.7793 3.15368 20.2727 3.15368 16C3.15368 11.7273 3.17205 11.222 3.25545 9.53409C3.3332 7.97415 3.61874 7.12763 3.85763 6.56284C4.17569 5.81583 4.55452 5.28336 5.1666 4.72246C5.77868 4.16284 6.36107 3.81519 7.17952 3.52569C7.79584 3.30598 8.72314 3.0462 10.4293 2.97512C12.274 2.89758 12.8282 2.88207 17.5 2.88207C22.1733 2.88207 22.726 2.89887 24.5721 2.97512C26.2783 3.0462 27.2042 3.30727 27.8219 3.52569C28.6389 3.81519 29.2213 4.16284 29.8348 4.72246C30.4469 5.28207 30.8257 5.81583 31.1438 6.56284C31.3841 7.12633 31.6682 7.97415 31.746 9.53409C31.8308 11.222 31.8477 11.7273 31.8477 16C31.8477 20.2714 31.8308 20.778 31.746 22.4659C31.6682 24.0258 31.3827 24.8737 31.1438 25.4372C30.8257 26.1842 30.4469 26.7166 29.8348 27.2763C29.2227 27.8359 28.6389 28.1822 27.8219 28.473C27.2056 28.6927 26.2783 28.9525 24.5721 29.0236C22.7274 29.1011 22.1733 29.1166 17.5 29.1166C12.8282 29.1166 12.274 29.1011 10.4293 29.0236ZM10.2851 0.0969305C8.42205 0.174475 7.14984 0.444588 6.03736 0.840065C4.88671 1.24847 3.91135 1.79645 2.9374 2.68562C1.96486 3.5748 1.36551 4.46656 0.918821 5.51987C0.486268 6.537 0.190832 7.70016 0.106018 9.40355C0.01979 11.1095 0 11.6549 0 16C0 20.3451 0.01979 20.8905 0.106018 22.5964C0.190832 24.2998 0.486268 25.463 0.918821 26.4801C1.36551 27.5321 1.96345 28.4252 2.9374 29.3144C3.90994 30.2036 4.8853 30.7502 6.03736 31.1599C7.15125 31.5554 8.42205 31.8255 10.2851 31.9031C12.1525 31.9806 12.7476 32 17.5 32C22.2538 32 22.849 31.9819 24.7149 31.9031C26.5779 31.8255 27.8502 31.5554 28.9626 31.1599C30.1133 30.7502 31.0886 30.2036 32.0626 29.3144C33.0351 28.4252 33.6331 27.5321 34.0812 26.4801C34.5137 25.463 34.8106 24.2998 34.894 22.5964C34.9788 20.8892 34.9986 20.3451 34.9986 16C34.9986 11.6549 34.9788 11.1095 34.894 9.40355C34.8092 7.70016 34.5137 6.537 34.0812 5.51987C33.6331 4.46785 33.0351 3.57609 32.0626 2.68562C31.0901 1.79645 30.1133 1.24847 28.9641 0.840065C27.8502 0.444588 26.5779 0.173183 24.7163 0.0969305C22.8504 0.0193861 22.2538 0 17.5014 0C12.7476 0 12.1525 0.0180937 10.2851 0.0969305Z" fill="black"/>
</g>
<defs>
<clipPath id="clip0_107_22">
<rect width="35" height="32" fill="white"/>
</clipPath>
</defs>
</svg>
