<svg width="32" height="32" viewBox="0 0 32 32" fill="none" xmlns="http://www.w3.org/2000/svg">
<g clip-path="url(#clip0_101_2)">
<path fill-rule="evenodd" clip-rule="evenodd" d="M32 6.14397C32 2.75309 29.3064 0.00012207 25.9901 0.00012207H6.00987C2.69362 0.00012207 0 2.75309 0 6.14397V25.856C0 29.246 2.69362 31.9999 6.00989 31.9999H25.9901C29.3064 31.9999 32 29.246 32 25.856L32 6.14397Z" fill="white"/>
<path fill-rule="evenodd" clip-rule="evenodd" d="M0.000976562 19.8799H15.983V31.9998H0.000988275L0.000976562 19.8799Z" fill="white"/>
<path d="M14.5422 22.1811H14.5433L14.5433 22.1811L14.5443 22.1811C15.3925 22.1802 16.1883 21.9102 16.7707 21.3116C17.3502 20.7158 17.6085 19.9077 17.6085 19.0405C17.6085 18.1777 17.3372 17.3781 16.7592 16.7903C16.1799 16.2011 15.3894 15.9236 14.5433 15.9236H12.7848H12.7141L12.6441 15.9335C12.1743 16.0003 11.6943 16.2059 11.3597 16.6588C11.0468 17.0824 10.9659 17.5839 10.9659 18.0274V21.1785V22.1775L11.9649 22.1785L14.5422 22.1811ZM12.9247 9.73682H12.8909L12.8571 9.73911C12.3723 9.77197 11.8343 9.92997 11.441 10.3863C11.0619 10.8259 10.9659 11.3732 10.9659 11.8524V12.6818V14.4996V15.4996H11.9659H14.2853C15.2376 15.4996 15.9791 15.105 16.4543 14.4785C16.899 13.8923 17.0527 13.1831 17.0527 12.5873C17.0527 11.8144 16.8235 11.0764 16.2875 10.5283C15.7486 9.97738 15.0157 9.73682 14.2442 9.73682H12.9247ZM16.8701 16.4257L17.3354 16.6931C17.3356 16.6932 17.3358 16.6933 17.336 16.6934C17.336 16.6934 17.336 16.6934 17.3361 16.6935C18.1049 17.1364 18.6377 18.0513 18.6377 19.2545C18.6377 20.3779 18.2265 21.2367 17.5405 21.8282C16.8394 22.4328 15.7636 22.8309 14.3302 22.8309H10.0176V9.80723C10.0231 9.45587 10.2842 9.1974 10.5827 9.16971H10.9532H14.2647C15.5396 9.16971 16.4846 9.51937 17.0936 10.0376C17.6862 10.5419 18.0421 11.2724 18.0421 12.2369C18.0421 13.4797 17.4449 14.162 17.116 14.4511C17.1158 14.4513 17.1155 14.4515 17.1153 14.4517L16.7102 14.8058L15.6555 15.7278L16.8701 16.4257Z" fill="white" stroke="black" stroke-width="2"/>
<path d="M21.0212 21.8928C21.0212 20.8211 21.8666 19.954 22.9082 19.954C23.9524 19.954 24.8018 20.8211 24.8018 21.8928C24.8018 22.9632 23.9524 23.8317 22.9082 23.8317C21.8666 23.8317 21.0212 22.9632 21.0212 21.8928Z" fill="black"/>
<path d="M6 1.5H26C28.4853 1.5 30.5 3.51472 30.5 6V26C30.5 28.4853 28.4853 30.5 26 30.5H1.5V6C1.5 3.51472 3.51472 1.5 6 1.5Z" stroke="black" stroke-width="3"/>
</g>
<defs>
<clipPath id="clip0_101_2">
<rect width="32" height="32" fill="white"/>
</clipPath>
</defs>
</svg>
